<?xml version="1.0" encoding="UTF-8"?>
<!DOCTYPE svg PUBLIC "-//W3C//DTD SVG 1.1//EN" "http://www.w3.org/Graphics/SVG/1.1/DTD/svg11.dtd">
<svg xmlns="http://www.w3.org/2000/svg" version="1.1" width="32px" height="32px" style="shape-rendering:geometricPrecision; text-rendering:geometricPrecision; image-rendering:optimizeQuality; fill-rule:evenodd; clip-rule:evenodd" xmlns:xlink="http://www.w3.org/1999/xlink">
<g><path style="opacity:0.964" fill="#ed705f" d="M 9.5,-0.5 C 13.5,-0.5 17.5,-0.5 21.5,-0.5C 25.8333,1.83333 29.1667,5.16667 31.5,9.5C 31.5,13.5 31.5,17.5 31.5,21.5C 29.1667,25.8333 25.8333,29.1667 21.5,31.5C 17.5,31.5 13.5,31.5 9.5,31.5C 5.16667,29.1667 1.83333,25.8333 -0.5,21.5C -0.5,17.5 -0.5,13.5 -0.5,9.5C 1.83333,5.16667 5.16667,1.83333 9.5,-0.5 Z"/></g>
<g><path style="opacity:1" fill="#f6b2a9" d="M 15.5,2.5 C 17.3442,3.20389 17.8442,4.53722 17,6.5C 15.8118,5.43659 15.3118,4.10326 15.5,2.5 Z"/></g>
<g><path style="opacity:1" fill="#f7c4bd" d="M 21.5,6.5 C 20.7784,6.08247 20.2784,5.4158 20,4.5C 18.9125,6.93163 18.4125,6.5983 18.5,3.5C 19.5,3.5 20.5,3.5 21.5,3.5C 21.5,4.5 21.5,5.5 21.5,6.5 Z"/></g>
<g><path style="opacity:1" fill="#f4a498" d="M 21.5,6.5 C 22.4232,5.69708 23.4232,5.53042 24.5,6C 26.4538,7.89777 27.4538,9.89777 27.5,12C 25.2858,12.4597 24.6192,11.793 25.5,10C 23.4556,9.50167 22.1223,8.33501 21.5,6.5 Z"/></g>
<g><path style="opacity:1" fill="#f5a59a" d="M 7.5,4.5 C 8.39092,5.26133 9.05758,6.26133 9.5,7.5C 9.15431,8.69559 8.65431,8.69559 8,7.5C 6.53009,10.6729 5.53009,13.6729 5,16.5C 2.37133,14.1855 2.538,11.6855 5.5,9C 5.16667,8.66667 4.83333,8.33333 4.5,8C 5.7101,6.9609 6.7101,5.79423 7.5,4.5 Z"/></g>
<g><path style="opacity:1" fill="#feecea" d="M 9.5,12.5 C 11.6746,12.6822 13.6746,13.3489 15.5,14.5C 17.3228,13.1551 19.3228,12.6551 21.5,13C 23.0897,15.4798 22.5897,17.3132 20,18.5C 18.6043,17.6057 17.1043,16.9391 15.5,16.5C 9.93663,19.9993 7.93663,18.6659 9.5,12.5 Z"/></g>
<g><path style="opacity:1" fill="#f6b5ad" d="M 24.5,24.5 C 24.1961,23.8501 23.8627,23.1835 23.5,22.5C 24.5771,20.2706 25.2437,17.9372 25.5,15.5C 28.7181,15.6509 29.0515,16.4842 26.5,18C 27.0219,18.5613 27.3552,19.228 27.5,20C 26.4485,21.5772 25.4485,23.0772 24.5,24.5 Z"/></g>
<g><path style="opacity:1" fill="#f5a49a" d="M 24.5,24.5 C 23.089,26.539 21.089,27.539 18.5,27.5C 18.281,26.325 18.6143,25.325 19.5,24.5C 20.9766,23.902 22.6433,23.902 24.5,24.5 Z"/></g>
<g><path style="opacity:1" fill="#f6a69a" d="M 7.5,23.5 C 10.7265,23.7799 13.3932,25.1132 15.5,27.5C 12.9743,28.5099 10.8077,27.8432 9,25.5C 6.90678,26.234 6.40678,25.5673 7.5,23.5 Z"/></g>
</svg>
